<svg width="11" height="7" viewBox="0 0 11 7" fill="none" xmlns="http://www.w3.org/2000/svg">
<path fill-rule="evenodd" clip-rule="evenodd" d="M9.63448 0.271507L5.5 5.34465L1.36552 0.271507C1.31123 0.204885 1.24143 0.147664 1.1601 0.10311C1.07877 0.058557 0.98751 0.0275431 0.891529 0.0118403C0.795549 -0.00386286 0.696727 -0.0039463 0.600707 0.0115924C0.504686 0.0271311 0.413348 0.0579877 0.331906 0.102402C0.250464 0.146816 0.180513 0.203918 0.126048 0.270446C0.0715832 0.336975 0.0336704 0.411627 0.0144744 0.490141C-0.00472172 0.568655 -0.00482529 0.649494 0.01417 0.72804C0.0331652 0.806587 0.0708872 0.881305 0.125182 0.947926L4.81202 6.69884C4.88754 6.79148 4.98984 6.86744 5.10986 6.91998C5.22987 6.97251 5.36388 7 5.5 7C5.63612 7 5.77013 6.97251 5.89014 6.91998C6.01016 6.86744 6.11246 6.79148 6.18798 6.69884L10.8748 0.947926C10.9291 0.881305 10.9668 0.806587 10.9858 0.72804C11.0048 0.649494 11.0047 0.568655 10.9855 0.490141C10.9663 0.411627 10.9284 0.336975 10.874 0.270446C10.8195 0.203918 10.7495 0.146816 10.6681 0.102402C10.5867 0.0579877 10.4953 0.0271311 10.3993 0.0115924C10.3033 -0.0039463 10.2045 -0.00386286 10.1085 0.0118403C10.0125 0.0275431 9.92123 0.058557 9.8399 0.10311C9.75857 0.147664 9.68877 0.204885 9.63448 0.271507Z" fill="white"/>
</svg>
