<svg width="17" height="16" viewBox="0 0 17 16" fill="none" xmlns="http://www.w3.org/2000/svg">
<path d="M6.5587 6.0026C6.71543 5.55705 7.0248 5.18134 7.432 4.94203C7.8392 4.70271 8.31796 4.61523 8.78348 4.69508C9.249 4.77493 9.67124 5.01695 9.97542 5.37829C10.2796 5.73963 10.4461 6.19695 10.4454 6.66927C10.4454 8.0026 8.44536 8.66927 8.44536 8.66927M8.4987 11.3359H8.50536M15.1654 8.0026C15.1654 11.6845 12.1806 14.6693 8.4987 14.6693C4.8168 14.6693 1.83203 11.6845 1.83203 8.0026C1.83203 4.32071 4.8168 1.33594 8.4987 1.33594C12.1806 1.33594 15.1654 4.32071 15.1654 8.0026Z" stroke="#98A2B3" stroke-width="1.33333" stroke-linecap="round" stroke-linejoin="round"/>
</svg>
