<svg width="5" height="8" viewBox="0 0 5 8" fill="none" xmlns="http://www.w3.org/2000/svg">
<path fill-rule="evenodd" clip-rule="evenodd" d="M0.182162 1.67101L3.68807 4.09531L0.182162 6.51962C0.136121 6.55145 0.0965772 6.59239 0.0657878 6.64007C0.0349979 6.68776 0.0135651 6.74127 0.0027132 6.79755C-0.00813866 6.85383 -0.00819635 6.91178 0.00254202 6.96808C0.0132804 7.02438 0.0346045 7.07794 0.0652981 7.1257C0.0959916 7.17345 0.135453 7.21447 0.181429 7.2464C0.227405 7.27834 0.278995 7.30057 0.333253 7.31183C0.387512 7.32308 0.443377 7.32314 0.497659 7.312C0.55194 7.30087 0.603575 7.27875 0.649616 7.24691L4.62391 4.49872C4.68793 4.45444 4.74042 4.39445 4.77673 4.32408C4.81304 4.25371 4.83203 4.17513 4.83203 4.09531C4.83203 4.0155 4.81304 3.93692 4.77673 3.86655C4.74042 3.79617 4.68793 3.73619 4.62391 3.69191L0.649616 0.943714C0.603575 0.911878 0.55194 0.889759 0.497659 0.878621C0.443377 0.867483 0.387512 0.867543 0.333253 0.878798C0.278995 0.890054 0.227405 0.912285 0.181429 0.944221C0.135453 0.976158 0.0959916 1.01717 0.0652981 1.06493C0.0346045 1.11268 0.0132804 1.16624 0.00254202 1.22254C-0.00819635 1.27885 -0.00813866 1.33679 0.0027132 1.39307C0.0135651 1.44935 0.0349979 1.50286 0.0657878 1.55055C0.0965772 1.59824 0.136121 1.63917 0.182162 1.67101Z" fill="#3A526C"/>
</svg>
