<svg width="9" height="7" viewBox="0 0 9 7" fill="none" xmlns="http://www.w3.org/2000/svg">
<path fill-rule="evenodd" clip-rule="evenodd" d="M7.88275 0.271507L4.5 5.34465L1.11725 0.271507C1.07282 0.204885 1.01571 0.147664 0.94917 0.10311C0.882629 0.058557 0.807962 0.0275431 0.729433 0.0118403C0.650904 -0.00386286 0.570049 -0.0039463 0.491487 0.0115924C0.412925 0.0271311 0.338194 0.0579877 0.271559 0.102402C0.204925 0.146816 0.147693 0.203918 0.10313 0.270446C0.0585681 0.336975 0.0275485 0.411627 0.0118427 0.490141C-0.00386323 0.568655 -0.00394796 0.649494 0.0115936 0.72804C0.0271352 0.806587 0.0579986 0.881305 0.102422 0.947926L3.93711 6.69884C3.99889 6.79148 4.0826 6.86744 4.18079 6.91998C4.27898 6.97251 4.38863 7 4.5 7C4.61137 7 4.72102 6.97251 4.81921 6.91998C4.9174 6.86744 5.00111 6.79148 5.06289 6.69884L8.89758 0.947926C8.942 0.881305 8.97286 0.806587 8.98841 0.72804C9.00395 0.649494 9.00386 0.568655 8.98816 0.490141C8.97245 0.411627 8.94143 0.336975 8.89687 0.270446C8.85231 0.203918 8.79508 0.146816 8.72844 0.102402C8.66181 0.0579877 8.58707 0.0271311 8.50851 0.0115924C8.42995 -0.0039463 8.3491 -0.00386286 8.27057 0.0118403C8.19204 0.0275431 8.11737 0.058557 8.05083 0.10311C7.98429 0.147664 7.92718 0.204885 7.88275 0.271507Z" fill="white"/>
</svg>
