<svg width="21" height="27" viewBox="0 0 21 27" fill="none" xmlns="http://www.w3.org/2000/svg">
<path fill-rule="evenodd" clip-rule="evenodd" d="M0.81452 3.35174L16.034 13.5L0.81452 23.6483C0.614655 23.7815 0.442991 23.9529 0.30933 24.1525C0.175669 24.3521 0.0826263 24.5761 0.0355186 24.8117C-0.0115891 25.0473 -0.0118408 25.2899 0.0347748 25.5255C0.0813904 25.7612 0.173962 25.9854 0.307205 26.1853C0.440447 26.3852 0.611752 26.5569 0.811338 26.6906C1.01092 26.8243 1.23488 26.9174 1.47042 26.9645C1.70597 27.0116 1.94848 27.0118 2.18412 26.9652C2.41976 26.9186 2.64391 26.826 2.84378 26.6927L20.0965 15.1887C20.3744 15.0033 20.6023 14.7522 20.7599 14.4576C20.9175 14.163 21 13.8341 21 13.5C21 13.1659 20.9175 12.837 20.7599 12.5424C20.6023 12.2478 20.3744 11.9967 20.0965 11.8113L2.84378 0.307266C2.64391 0.173998 2.41976 0.0814095 2.18412 0.0347843C1.94848 -0.0118408 1.70597 -0.0115891 1.47042 0.0355282C1.23488 0.0826454 1.01092 0.175705 0.811338 0.309391C0.611752 0.443079 0.440447 0.614777 0.307205 0.81468C0.173962 1.01458 0.0813904 1.23878 0.0347748 1.47446C-0.0118408 1.71015 -0.0115891 1.95271 0.0355186 2.1883C0.0826263 2.42389 0.175669 2.64789 0.30933 2.84751C0.442991 3.04714 0.614655 3.21848 0.81452 3.35174Z" fill="white"/>
</svg>
