<svg width="9" height="12" viewBox="0 0 9 12" fill="none" xmlns="http://www.w3.org/2000/svg">
<path fill-rule="evenodd" clip-rule="evenodd" d="M0.34908 1.48966L6.87169 6L0.34908 10.5103C0.263424 10.5696 0.189854 10.6457 0.13257 10.7344C0.0752869 10.8232 0.0354128 10.9227 0.0152225 11.0274C-0.00496674 11.1321 -0.00507355 11.2399 0.014904 11.3447C0.0348825 11.4494 0.0745554 11.5491 0.13166 11.6379C0.188764 11.7268 0.26218 11.8031 0.347716 11.8625C0.433253 11.9219 0.529235 11.9633 0.630181 11.9842C0.731129 12.0052 0.835063 12.0053 0.936051 11.9845C1.03704 11.9638 1.13311 11.9227 1.21876 11.8634L8.6128 6.75052C8.73191 6.66814 8.82957 6.55654 8.89711 6.42561C8.96466 6.29469 9 6.14849 9 6C9 5.85151 8.96466 5.70531 8.89711 5.57439C8.82957 5.44346 8.73191 5.33186 8.6128 5.24948L1.21876 0.136562C1.13311 0.0773315 1.03704 0.0361805 0.936051 0.0154591C0.835063 -0.00526333 0.731129 -0.00515175 0.630181 0.015789C0.529235 0.0367308 0.433253 0.0780907 0.347716 0.137506C0.26218 0.196923 0.188764 0.273232 0.13166 0.362079C0.0745554 0.450925 0.0348825 0.550568 0.014904 0.655316C-0.00507355 0.760066 -0.00496674 0.867871 0.0152225 0.972577C0.0354118 1.07728 0.0752869 1.17684 0.13257 1.26556C0.189854 1.35428 0.263424 1.43043 0.34908 1.48966Z" fill="#FAFF00"/>
</svg>
